<?xml version="1.0" encoding="utf-8"?>
<!-- Generator: Adobe Illustrator 19.0.0, SVG Export Plug-In . SVG Version: 6.00 Build 0)  -->
<svg version="1.1" xmlns="http://www.w3.org/2000/svg" viewBox="-153 -46 652 652" fill="white" xml:space="preserve">

	<path class="st0" d="M-113.1,284.4h1c2.5,0,5.4,0,7.9,0c1.6,0,2.9-0.3,4.1-1.3c2.9-2.2,2.9-6.3,0-8.2c-1-0.6-1.9-1.3-2.9-1.3
	c-3.5-0.3-6.7,0-10.1-0.3l0,0L-113.1,284.4z M-113.1,303.7h1c2.9,0,5.4,0,8.2,0c0.6,0,1.3,0,1.9,0c3.8-0.6,6.3-4.1,5.1-7.9
	c-0.6-2.5-2.9-3.8-5.1-4.4c-1.6-0.3-3.5-0.3-5.1-0.3c-1.9,0-3.8,0-6,0V303.7z M-125.8,266c3.5,0,7.3,0,10.8,0c4.8,0,9.5,0,14.3,0.3
	c3.8,0,7,1.3,9.2,4.4c2.5,3.5,3.2,7.3,1.9,11.4c-0.6,1.9-1.9,3.2-3.5,4.1c-0.6,0.3-1,0.6-1.6,1c1.3,0.6,2.5,1.3,3.5,2.2
	c2.5,2.2,3.8,5.4,3.8,8.9c0,3.8-1.3,7-4.4,9.5c-2.2,1.9-4.8,2.9-7.6,3.2c-1,0-1.9,0.3-2.9,0.3c-7.6,0-15.2,0-22.8,0
	c-0.3,0-0.6,0-1,0V304h3.5v-30.4h-3.5L-125.8,266L-125.8,266z M450.7,297.4L450.7,297.4c0-1,0-1.9,0-2.9c-0.3-2.2-1.6-3.8-3.5-4.8
	c-3.5-2.2-7.6-1-9.2,2.9c-1,2.9-1,5.4-0.3,8.2c0.6,2.2,1.6,3.8,3.8,4.8c4.1,1.6,9.2-1.9,9.2-6.3V297.4z M442.5,318.6
	c-1.3-0.3-2.9-0.6-3.8-1.3c-2.5-1.3-4.1-3.2-5.1-6c1.3,0,2.5,0,3.8,0c0.3,0,0.3,0.3,0.6,0.3c2.2,3.8,6.7,4.8,10.5,2.5
	c1.6-1,2.2-2.2,2.5-4.1c0-1.9,0-3.8,0-5.7c-0.3,0.3-0.6,1-1,1.3c-3.8,4.4-10.8,3.5-14-1c-2.2-2.9-2.5-6-2.2-9.5c0-2.2,1-4.1,1.9-6
	c3.2-4.8,10.8-5.7,14.3-0.6c0.3,0.3,0.6,0.6,1,1.3v-4.1h7v2.9h-3.5v1c0,6.7,0,13.3,0,20c0,4.8-2.9,7.6-7.3,8.6c-0.6,0-1,0.3-1.6,0.3
	h-3.2V318.6z M472,252c0-5.1-4.1-9.2-9.2-9.2c-5.1,0-9.2,4.1-9.5,9.2c0,5.1,4.1,9.2,9.2,9.5C467.9,261.2,472,257.1,472,252z
	 M473.9,253.3c-0.3,1.9-1,3.5-2.2,5.1c-2.9,3.8-7.6,5.4-12.1,4.1c-4.4-1.3-7.6-5.1-7.9-9.5c-0.6-6,3.5-11.4,9.2-12.4
	c0,0,0.3,0,0.6,0h2.5h0.3c3.2,0.6,5.4,1.9,7.3,4.4c1.3,1.6,1.6,3.2,2.2,5.1V253.3z M252.9,287.5c-0.6,3.2-1.6,6.3-2.2,9.5
	c-1,4.4-2.2,8.9-3.2,13.3c0,0.3,0,0.6-0.6,0.6c-2.9,0-5.7,0-8.6,0c-0.3-1-0.6-1.9-0.6-2.9c-2.2-7.9-4.4-15.9-6.3-23.8
	c0-0.6-0.3-1-1-1c-0.6,0-1.3,0-2.2,0v-6.7h13.6v6.7h-3.5c1.6,6.7,3.2,13.3,4.8,20l0,0c0.3-0.6,0.3-1.6,0.6-2.2
	c1.6-7.9,3.2-15.9,5.1-23.5c0-0.3,0.3-0.6,0.6-0.6c2.5,0,5.1,0,7.6,0c0.6,0,0.6,0.3,0.6,0.6c1.9,8.2,3.5,16.5,5.4,24.7
	c0,0.3,0,0.3,0.3,0.6l4.4-19.7h-3.5v-6.7h13.6v6.7c-0.6,0-1.6,0-2.2,0c-0.3,0-0.6,0-0.6,0.6c-2.2,8.6-4.8,17.4-7,26
	c-0.3,0.6-0.3,1-1,1c-2.5,0-5.1,0-7.6,0c-0.6,0-0.6,0-1-0.6c-1.9-7.3-3.5-14.6-5.4-22.2C253.2,287.8,253.2,287.8,252.9,287.5z
	 M207.2,274.8L207.2,274.8c-2.2,6.7-4.1,13-6,19.7h11.7C211,287.8,209.1,281.2,207.2,274.8z M228.4,303.7v7.3h-10.1
	c-0.6-2.2-1.3-4.4-1.9-6.7c-0.3-1-0.6-1.9-1-2.9c0-0.3-0.3-0.3-0.6-0.3c-5.1,0-10.1,0-14.9,0c-0.6,0-0.6,0.3-0.6,0.6
	c-1,2.9-1.6,5.7-2.5,8.6c0,0.3,0,0.3-0.3,0.6H186v-7.3c1,0,1.9,0,2.9,0c0.6,0,0.6,0,1-0.6c3.8-12.4,7.9-24.4,11.7-36.8
	c0-0.6,0.3-0.6,1-0.6c3.2,0,6.3,0,9.8,0c0.6,0,0.6,0.3,1,0.6c4.1,12.1,7.9,24.4,12.1,36.5c0.3,0.6,0.3,0.6,1,0.6
	C226.5,303.7,227.5,303.7,228.4,303.7z M352.8,289.4l14.6,0.3c0-3.8-2.9-6.7-6.7-6.7C356.9,282.8,353.1,285.9,352.8,289.4z
	 M377.2,295.8h-24.4c0.3,3.2,1.3,6,3.8,7.9c2.2,1.6,4.8,1.9,7.6,1c1.9-0.6,2.9-1.9,3.8-3.8c0.3-0.3,0.3-0.6,1-0.6
	c2.5,0,5.4,0,7.9-0.3c0,0.6-0.3,1-0.3,1.3c-1.9,6-6,9.5-12.4,10.5c-3.8,0.6-7.3,0.3-10.8-1.6c-4.4-2.2-7.3-6-8.6-11.1
	c-1.3-6-0.6-11.7,3.2-16.8c6.3-8.6,19.7-8.2,26,0.3C375.9,285.9,377.5,292,377.2,295.8z M-72.8,289.4l14.6,0.3
	c0.3-3.5-2.5-6.3-6.3-6.7C-68.4,282.5-72.5,285.6-72.8,289.4z M-49,295.8h-24.4c0,0.6,0,1.3,0.3,1.9c0.3,1.3,0.6,2.5,1.3,3.8
	c1.6,2.9,4.4,3.8,7.6,3.5c2.9-0.3,4.8-1.9,5.7-4.4c0-0.3,0.3-0.3,0.6-0.3c2.5,0,5.4-0.3,7.9-0.3h0.3c-0.3,1.9-1,3.5-1.9,5.1
	c-2.5,3.8-6,6-10.5,6.7c-3.8,0.6-7.6,0.3-11.1-1.6c-4.8-2.5-7.3-6.7-8.6-11.7c-1-5.1-0.6-10.1,2.2-14.6c5.7-9.8,20.3-10.8,27-1.3
	c2.5,3.8,3.8,8.2,3.8,13C-48.7,295.5-48.7,295.5-49,295.8z M302.3,294.8c-2.2,0.3-4.4,0.3-6.3,1c-1.6,0.3-2.9,0.6-4.4,1.3
	c-1.9,0.6-2.5,2.2-2.5,4.1s1.3,3.2,3.2,3.8c2.9,1,6.3,0,8.6-2.2C302.7,300.5,302.7,297.7,302.3,294.8z M302.3,289.1
	c0-1-0.3-2.2-0.3-3.2c-0.3-1.9-1.6-3.2-3.5-3.5c-1.3-0.3-2.9-0.3-4.1,0c-2.2,0.6-3.8,1.9-3.8,4.4c0,0.3,0,0.6,0,1l-8.2-0.3
	c0-1.6,0.3-3.2,1.3-4.4c1.3-2.5,3.5-4.4,6-5.4c5.1-1.9,10.1-1.9,15.2,0.3c4.1,1.6,6,5.1,6.3,9.2c0.3,3.8,0,7.6,0,11.7
	c0,1.9,0,3.8,0,6h2.9v6.7h-10.8v-3.8l0,0c-0.3,0.3-1,1-1.3,1.3c-5.1,4.4-13.6,4.1-18.4-0.3c-4.1-4.1-4.1-12.4,2.2-15.5
	c2.9-1.6,5.7-2.2,8.9-2.5c2.5-0.3,5.1-0.6,7.9-1C302,289.1,302,289.1,302.3,289.1z M47.4,282.8c1.3-1.3,2.2-2.5,3.5-3.8
	c2.9-2.5,6-3.5,9.8-2.9c2.9,0.6,4.4,2.2,5.4,4.8c0.3,0.6,0.3,1.3,0.6,1.9c0.3-0.3,0.6-1,1-1.3c1.6-2.5,3.8-4.8,7-5.4
	c2.9-0.6,5.7-0.6,7.9,1.3c1.9,1.6,2.5,3.8,2.9,6c0,0.6,0,1.6,0,2.2c0,6.7,0,13.3,0,19.7v1h4.8v4.1h-9.5v-1c0-7.9,0-15.5,0-23.5
	c0-1,0-1.6-0.3-2.5c-0.6-3.2-2.9-4.8-6.3-3.8c-2.5,0.6-4.1,2.2-5.7,4.4c-1.3,1.9-1.9,4.1-1.9,6.3c0,5.1,0,10.1,0,15.2v1h5.1v4.1
	H61.3v-1c0-7.9,0-15.9,0-23.8c0-1,0-1.9-0.3-2.9c-0.6-1.9-1.9-2.9-3.8-3.2c-2.9-0.3-4.8,1-6.7,2.9c-2.2,2.5-3.5,5.1-3.2,8.6
	c0,4.8,0,9.5,0,14.6v1h5.1v4.1H37.9v-4.1h4.8v-26.3h-4.8v-4.1H48C47.1,278.6,47.1,280.6,47.4,282.8z M-10.7,292.6h-10.5
	c0-1.3,0-2.9,0.3-4.1H-5v22.2H-10v-7c-0.3,0.3-0.3,0.3-0.3,0.6c-3.2,4.8-7.3,7.3-13,7.6c-4.4,0-7.9-1.6-11.4-4.4
	c-3.8-3.5-6-7.9-7-12.7c-1.3-6.3-0.6-12.7,1.9-18.7c1.9-4.1,4.8-7.6,8.9-9.5c6.7-3.2,14.9-1.9,19.7,5.1c0,0.3,0.3,0.3,0.6,0.6v-7
	h4.8v14.3H-11c-0.3-1.9-1.3-3.5-2.2-5.1c-2.5-3.5-6-5.4-10.1-5.4c-3.8,0-7,1.9-9.2,4.8c-2.2,2.5-3.2,5.7-3.8,9.2
	c-0.6,4.8-0.3,9.2,1.3,13.6c1,2.5,2.2,4.8,4.4,6.7c3.8,3.5,8.6,4.1,13,1.9C-13.2,303.4-10.3,298-10.7,292.6z M123.8,293.6
	c0-0.6,0-1.3,0-2.2c-0.3-2.5-1-5.1-2.2-7.3c-2.5-3.5-6.7-4.8-10.5-2.9c-3.5,1.6-7,6-6.3,10.8c0.3,2.5,0,4.8,0.6,7.3
	c0.6,4.1,4.8,7.6,8.9,8.2c3.5,0.3,6.7-1.6,8.2-4.8C123.2,299.6,123.8,296.7,123.8,293.6z M99.4,268.2h-4.4v-4.1h9.5v19.7
	c0.3-0.3,0.3-0.6,0.6-0.6c1-1.6,2.5-3.2,4.1-4.4c4.4-3.2,9.8-3.2,14.3,0.6c3.2,2.5,4.8,6,5.7,9.8c1.3,5.7,0.6,11.1-2.5,16.2
	c-1.6,2.5-3.8,4.8-6.7,6c-4.4,1.6-9.5,0.3-12.7-3.2c-0.6-1-1.6-1.9-2.5-2.9v6h-9.8v-4.1h4.8v-39H99.4z M23.3,293.6
	c-0.3,0-0.6,0-0.6,0c-2.9,0.3-5.7,1-8.9,1.6c-1.9,0.3-3.8,1-5.4,2.2c-1,0.6-1.9,1.6-1.9,3.2c-0.6,3.8,2.2,7.6,6.3,7.9
	c4.4,0.3,9.2-3.2,10.1-7.6C23.3,298,22.9,295.8,23.3,293.6z M27.7,307.2h4.8c0,1.3,0.3,2.9,0.3,4.1h-9.8v-6
	c-0.3,0.3-0.3,0.3-0.3,0.3c-2.5,4.1-6.3,6-11.1,6.3c-4.1,0.3-7.3-1.3-9.5-4.8c-1.9-3.2-2.5-6.3-0.6-9.8c1-2.2,2.9-3.2,5.1-4.1
	c2.9-1.3,6-1.9,9.2-2.5c2.2-0.3,4.8-0.6,7.3-1c0-1.6,0-3.5-0.3-5.1c-0.6-2.5-2.5-3.8-4.8-4.4c-1.9-0.6-4.1-0.3-6,0
	c-2.5,0.6-4.1,2.5-4.8,4.8c-0.3,0.6-0.3,1-1.3,1c-1.6,0-2.9,0-4.4,0c1-4.1,2.9-7,6.7-8.9c4.4-1.9,8.9-1.9,13.3,0
	c3.5,1.6,5.4,4.4,6,8.2c0,1,0,1.6,0,2.5c0,6,0,11.7,0,17.8L27.7,307.2z M156.1,291h18.7c0-2.9-1-5.1-2.2-7.3
	c-1.9-2.5-4.1-3.8-7.3-3.2C159.3,281.2,156.5,285.6,156.1,291z M180.6,294.8h-24.7c0.3,1.3,0.3,2.2,0.6,3.2c0.3,1.9,1,3.8,2.2,5.7
	c2.5,3.8,8.2,5.1,11.7,2.9c1.6-1,2.5-2.5,3.5-4.1c0.3-0.6,0.6-1,1.3-1c1.6,0,3.2,0,4.8,0c-0.3,0.6-0.3,1.3-0.6,1.9
	c-2.2,5.1-8.2,8.6-14,7.9c-7.9-0.6-13.3-6-14.6-14c-1-5.1-0.3-10.1,2.5-14.6c2.2-3.8,5.7-6.3,10.1-7c6.3-1,12.1,2.2,14.9,7.9
	c1.6,3.2,2.2,6.7,2.2,10.5C180.6,294.8,180.6,294.8,180.6,294.8z M329.9,304.3h4.1v6.7h-15.9v-6.7h3.5v-20.9h-3.5v-6.7h11.7v5.1l0,0
	c0.3-0.3,0.6-1,0.6-1.3c1.3-1.9,2.9-3.8,5.4-4.1c1.9-0.6,4.1-0.3,6,0l0.3,0.3c0,2.5,0,5.1,0,7.6c-1,0-1.9-0.3-2.9-0.3
	c-2.5-0.3-5.1,0.3-7,1.9c-1.6,1.3-2.2,3.2-2.5,5.1c0,4.1,0,8.2,0,12.7C329.6,304,329.6,304,329.9,304.3z M136.8,267.9H132v-3.8h9.8
	v42.8h4.4v4.1H132v-4.1h4.8V267.9z M393.4,298.6c0,1.9,0.3,3.8,1,5.7c1.3,2.5,3.2,4.1,6,4.1s5.1-1.3,6.3-3.8c0.6-1.6,1-2.9,1.3-4.8
	c0.3-2.5,0-5.1-1.3-7.3c-1.3-2.5-3.5-3.8-6.3-3.8s-4.4,1.6-5.7,3.8C393.4,294.5,393.4,296.4,393.4,298.6z M411.7,298
	c0,3.2-0.6,6-2.2,8.2c-2.5,3.8-6,5.1-10.5,4.8c-4.1-0.3-7-2.9-8.6-6.7c-1.6-4.1-1.9-8.6,0-12.7c1.9-4.1,5.4-6.3,10.1-6.3
	s7.9,2.2,9.8,6.3C411.4,293.9,411.7,296.1,411.7,298z M425.7,310.7h-11.1v-2.9h3.5v-18.7h-3.5v-2.9h7.3v5.1c1.3-2.2,2.9-4.4,5.4-5.4
	c1.3-0.3,3.5-0.3,4.8,0v3.5c-0.6,0-1.3,0-1.9-0.3c-4.4-0.3-8.2,2.9-8.2,7.3c0,3.5,0,7.3,0,10.8v0.3h4.1L425.7,310.7L425.7,310.7z
	 M381.3,306.6h4.1v4.1h-4.1V306.6z M459.9,246.9v3.8c1.3,0,2.5,0,3.8,0c0.3,0,0.6,0,1-0.3c1-0.3,1.3-1,1-2.2c0-1-0.6-1.6-1.6-1.6
	C462.8,246.9,461.5,246.9,459.9,246.9z M465.3,251.7c1.3,0.3,1.6,1.3,1.6,2.2s0.3,2.2,0.3,3.2l0,0c-1.9,0-1.6,0.3-1.9-1.6
	c0-0.6,0-1.3-0.3-1.9c-0.3-1-0.6-1.6-1.9-1.6c-1.3,0-2.5,0-3.8,0v4.8h-1.6v-11.4c0.3,0,0.6,0,1.3,0c1.6,0,3.2,0,4.8,0
	c1.6,0,2.5,1,2.9,2.2C467.6,249.5,466.9,250.7,465.3,251.7z" />
</svg>